<svg width="36" height="37" viewBox="0 0 36 37" fill="none" xmlns="http://www.w3.org/2000/svg">
<path d="M25.5479 21.9707C25.7623 24.2404 26.4179 26.0145 27.8857 27.834C29.1899 29.4505 31.1426 31.113 34.0342 33.1777L35.332 34.0889L35.3525 34.1064C35.3701 34.12 35.3877 34.1336 35.4033 34.1494L35.4092 34.1543C35.4234 34.1692 35.4351 34.1859 35.4473 34.2021C35.4522 34.2088 35.4582 34.2147 35.4629 34.2217C35.4729 34.2365 35.48 34.2528 35.4883 34.2686C35.4987 34.2883 35.5079 34.3086 35.5156 34.3301C35.523 34.3503 35.5295 34.3706 35.5342 34.3916C35.535 34.3953 35.5373 34.3986 35.5381 34.4023C35.5394 34.4087 35.538 34.4155 35.5391 34.4219C35.5421 34.4407 35.5451 34.4594 35.5459 34.4785C35.5465 34.4926 35.5465 34.5066 35.5459 34.5205C35.545 34.5425 35.5419 34.5641 35.5381 34.5859C35.5369 34.5925 35.5366 34.599 35.5352 34.6055C35.5299 34.6296 35.5226 34.6533 35.5137 34.6768C35.511 34.6839 35.5089 34.6912 35.5059 34.6982C35.4984 34.7155 35.4881 34.7314 35.4785 34.748C35.4722 34.7591 35.4671 34.7708 35.46 34.7812L35.459 34.7842C35.424 34.8348 35.3807 34.876 35.333 34.9092C35.3215 34.9172 35.3091 34.9236 35.2969 34.9307C35.2826 34.9389 35.2688 34.9474 35.2539 34.9541C35.2407 34.9601 35.2267 34.9639 35.2129 34.9688C35.1964 34.9745 35.1801 34.9803 35.1631 34.9844C35.1571 34.9858 35.1516 34.989 35.1455 34.9902H35.1445L35.1436 34.9912C35.142 34.9915 35.1394 34.9917 35.1367 34.9922C35.1313 34.9933 35.1233 34.9951 35.1133 34.9971C35.093 35.001 35.0636 35.0066 35.0254 35.0137C34.9485 35.0278 34.836 35.0474 34.6924 35.0713C34.4054 35.1191 33.9926 35.1827 33.4854 35.2461C32.4713 35.3729 31.0742 35.5 29.5479 35.5C26.4893 35.5 23.4089 34.9896 20.3242 33.4473C18.7947 32.6825 17.6443 31.9163 16.873 31.3379C16.583 31.1204 16.348 30.9271 16.165 30.7725C16.0532 30.9008 15.9105 31.0439 15.7256 31.2002C15.0249 31.7926 13.6818 32.634 11.0811 33.7334C8.45765 34.8424 5.71192 35.5326 3.62891 35.9453C2.58582 36.152 1.70476 36.2897 1.08398 36.376C0.773741 36.4191 0.528089 36.4492 0.359375 36.4688C0.275014 36.4785 0.209495 36.4855 0.165039 36.4902C0.142969 36.4926 0.125886 36.4949 0.114258 36.4961C0.108513 36.4967 0.103686 36.4968 0.100586 36.4971C0.0994138 36.4972 0.0984184 36.497 0.0976562 36.4971L0.0966797 36.498H0.0957031L0 35.502C0.000486439 35.5019 0.00179149 35.5021 0.00292969 35.502C0.00521453 35.5017 0.00886227 35.5015 0.0136719 35.501C0.0237834 35.5 0.0399405 35.4983 0.0605469 35.4961C0.101739 35.4917 0.163431 35.4849 0.244141 35.4756C0.405902 35.4568 0.644076 35.4278 0.946289 35.3857C1.55131 35.3016 2.41316 35.1663 3.43457 34.9639C5.48039 34.5585 8.15377 33.8852 10.6914 32.8125C13.2519 31.7301 14.4904 30.9351 15.0801 30.4365C15.3733 30.1887 15.4927 30.0254 15.5371 29.9502C15.547 29.9334 15.5524 29.9212 15.5557 29.9141V29.9131C15.5586 29.8965 15.5638 29.8805 15.5684 29.8643C15.5726 29.8491 15.5764 29.8339 15.582 29.8193C15.5871 29.8063 15.5934 29.7939 15.5996 29.7812C15.6063 29.7676 15.6132 29.7542 15.6211 29.7412C15.6294 29.7275 15.6386 29.7142 15.6484 29.7012C15.6583 29.688 15.6686 29.6752 15.6797 29.6631C15.6847 29.6577 15.6891 29.6517 15.6943 29.6465C15.6996 29.6412 15.7055 29.6368 15.7109 29.6318C15.7222 29.6215 15.7339 29.6118 15.7461 29.6025C15.759 29.5927 15.7716 29.5826 15.7852 29.5742C15.805 29.5619 15.8261 29.5515 15.8477 29.542C15.8519 29.5401 15.856 29.5379 15.8604 29.5361C15.8857 29.5259 15.9122 29.5177 15.9395 29.5117C15.9444 29.5106 15.9492 29.5088 15.9541 29.5078C15.9844 29.5021 16.0159 29.5 16.0479 29.5C16.0805 29.5 16.1133 29.5024 16.1455 29.5088C16.1966 29.5189 16.2439 29.5391 16.2881 29.5635C16.3284 29.5857 16.3672 29.6123 16.4014 29.6465L16.4131 29.6582C16.4228 29.6676 16.4387 29.6822 16.46 29.7021C16.5028 29.7423 16.5689 29.8037 16.6582 29.8818C16.8368 30.0381 17.1085 30.264 17.4727 30.5371C18.2014 31.0837 19.3012 31.8176 20.7715 32.5527C23.6868 34.0104 26.6064 34.5 29.5479 34.5C31.0212 34.5 32.3745 34.3771 33.3604 34.2539C33.4978 34.2367 33.6277 34.217 33.75 34.2002L33.458 33.9951C30.5388 31.9112 28.4963 30.1834 27.1074 28.4619C25.5012 26.4709 24.7791 24.5018 24.5498 22.0469L24.5479 22.0234V0H25.5479V21.9707ZM15.5518 29.9395C15.5506 29.9471 15.5496 29.9567 15.5488 29.9668C15.5485 29.9717 15.5481 29.977 15.5479 29.9824V29.9951C15.5481 29.9712 15.5512 29.9478 15.5547 29.9248C15.5538 29.929 15.5526 29.9338 15.5518 29.9395Z" fill="black"/>
</svg>
